<?xml version="1.0" standalone="no"?>
<!DOCTYPE svg PUBLIC "-//W3C//DTD SVG 20010904//EN"
 "http://www.w3.org/TR/2001/REC-SVG-20010904/DTD/svg10.dtd">
<svg version="1.0" xmlns="http://www.w3.org/2000/svg"
 width="736.000000pt" height="736.000000pt" viewBox="0 0 736.000000 736.000000"
 preserveAspectRatio="xMidYMid meet">

<g transform="translate(0.000000,736.000000) scale(0.100000,-0.100000)"
fill="#000000" stroke="none">
<path d="M2205 6691 c-52 -23 -119 -94 -206 -215 -339 -471 -529 -970 -578
-1517 -9 -101 -12 -112 -60 -200 -112 -209 -141 -337 -150 -664 l-6 -230 -33
-69 c-35 -75 -82 -147 -215 -329 -48 -65 -102 -150 -122 -190 -44 -90 -82
-259 -57 -256 4 0 25 37 46 81 48 98 123 199 173 232 20 14 39 24 41 21 2 -2
-12 -23 -31 -47 -87 -108 -161 -255 -186 -369 -13 -64 -24 -185 -16 -177 4 4
24 45 44 90 48 108 112 207 161 252 63 57 64 42 3 -41 -31 -43 -73 -114 -94
-158 -37 -77 -84 -235 -76 -258 2 -6 22 24 45 67 23 42 54 93 69 113 27 35
102 97 110 90 2 -2 -17 -35 -42 -72 -24 -38 -54 -97 -66 -132 -20 -60 -41
-213 -29 -213 3 0 13 20 23 45 25 60 68 116 104 137 l31 18 -33 -63 c-42 -79
-57 -152 -53 -252 3 -75 4 -78 16 -50 27 66 108 183 118 172 2 -2 -7 -28 -20
-58 -40 -86 -57 -169 -54 -256 l3 -78 18 50 c24 70 92 171 135 200 20 13 37
23 39 21 2 -1 -10 -27 -27 -57 -52 -97 -80 -263 -65 -391 l8 -63 12 35 c49
140 178 286 331 376 25 15 42 29 39 32 -10 10 -171 -77 -218 -118 -26 -23 -47
-39 -47 -35 0 4 21 39 48 78 66 101 172 209 261 268 42 28 78 52 80 54 1 2
-23 -2 -56 -10 -69 -16 -144 -47 -185 -76 -47 -34 -43 -15 9 36 56 55 114 97
198 142 48 26 55 33 35 33 -41 0 -140 -28 -209 -60 -77 -37 -81 -37 -50 -4 37
40 141 112 217 150 48 24 60 33 43 34 -34 0 -147 -29 -201 -52 l-44 -19 19 21
c33 37 109 88 191 130 92 46 79 50 -66 20 -145 -30 -145 -28 -4 35 55 25 91
45 81 45 -36 0 -169 -31 -214 -51 -25 -11 -48 -18 -50 -15 -17 16 245 166 290
166 9 0 19 5 22 10 4 7 -7 9 -32 5 -21 -3 -73 -9 -116 -15 -43 -6 -91 -13
-105 -16 -23 -4 -21 -1 13 20 41 26 180 83 270 110 50 16 50 16 -65 11 -63 -3
-128 -8 -145 -10 -69 -11 96 55 202 82 62 15 113 30 113 33 0 14 -337 -17
-405 -36 -13 -4 -17 -3 -10 4 11 10 172 73 305 118 l85 29 -50 3 c-27 2 -119
-2 -203 -8 -84 -7 -155 -10 -158 -7 -7 6 125 50 248 81 190 49 273 60 468 60
158 1 200 -2 289 -22 234 -53 378 -125 615 -310 61 -48 175 -130 253 -182 78
-52 140 -97 138 -99 -6 -5 -182 104 -370 229 -346 230 -499 300 -719 331 -79
10 -256 4 -256 -10 0 -3 33 -12 73 -18 87 -14 176 -43 277 -89 74 -35 174 -94
167 -100 -1 -2 -43 10 -92 27 -123 41 -223 55 -305 42 l-65 -10 50 -2 c76 -2
212 -26 285 -51 103 -35 230 -100 446 -228 237 -141 281 -165 394 -208 99 -38
95 -43 -10 -13 -98 27 -202 76 -420 199 -98 56 -217 117 -264 136 -137 56
-282 76 -391 55 l-40 -8 40 -7 c163 -28 311 -88 466 -188 74 -48 111 -78 96
-78 -2 0 -39 17 -83 38 -82 40 -191 85 -234 96 -14 4 16 -13 65 -37 90 -44
420 -257 398 -257 -16 0 -152 59 -268 117 -160 80 -162 72 -5 -17 232 -132
268 -147 425 -182 101 -22 405 -16 550 10 130 24 377 85 545 133 174 51 234
49 322 -9 33 -22 41 -23 67 -12 16 6 35 25 42 41 10 26 9 36 -15 86 -34 69
-42 135 -27 244 39 295 34 404 -29 718 -22 108 -45 234 -50 281 -11 84 -45
239 -74 333 -8 26 -13 47 -10 47 14 0 87 -181 114 -281 l30 -114 -4 85 c-15
296 -176 572 -433 744 -76 52 -77 55 -7 25 138 -61 301 -202 388 -336 76 -118
135 -285 136 -387 0 -32 3 -38 13 -28 17 18 16 250 -2 322 -35 140 -128 286
-234 366 -69 52 -51 51 58 -4 267 -133 450 -348 499 -587 l13 -60 6 40 c8 48
-7 160 -30 217 -26 67 -99 176 -167 247 -66 70 -61 71 24 6 130 -99 242 -247
296 -393 30 -79 63 -220 65 -277 l1 -40 9 30 c17 52 -7 228 -46 350 -13 42 25
-34 53 -106 39 -99 71 -227 86 -352 l12 -102 14 60 c15 69 19 213 7 300 -9 74
5 56 30 -37 20 -80 20 -227 -1 -329 -9 -41 -41 -161 -70 -266 -71 -249 -80
-294 -80 -443 0 -131 16 -242 42 -299 14 -31 18 -33 55 -28 86 12 152 99 163
214 l7 70 -38 37 c-30 31 -36 42 -30 64 11 47 53 65 96 42 10 -6 29 -30 41
-53 20 -36 23 -57 23 -147 0 -95 -3 -111 -28 -162 -36 -73 -102 -132 -168
-149 -43 -11 -48 -15 -43 -33 13 -41 58 -102 129 -176 121 -125 155 -201 155
-343 0 -175 -80 -347 -231 -496 -51 -51 -299 -222 -419 -289 -124 -69 -304
-113 -539 -131 -113 -8 -130 -12 -195 -45 -90 -46 -156 -102 -206 -176 -66
-97 -92 -205 -74 -299 6 -30 8 -29 38 42 18 40 39 83 47 94 59 84 160 167 266
220 74 37 86 40 195 46 125 8 214 23 318 57 133 44 319 145 463 254 46 34 83
56 92 52 10 -3 15 1 15 14 0 19 75 90 96 90 32 0 223 -241 317 -400 77 -129
80 -133 54 -70 -48 112 -150 264 -271 402 -73 83 -91 118 -63 118 15 0 84 -70
187 -190 96 -112 101 -116 51 -43 -24 34 -81 103 -127 154 -46 51 -84 97 -84
103 0 18 39 76 55 82 50 20 282 -135 545 -364 119 -104 127 -110 80 -57 -113
127 -293 270 -488 389 -98 60 -112 72 -106 90 13 44 23 42 157 -28 158 -82
380 -209 497 -283 76 -48 81 -50 45 -17 -85 77 -246 175 -485 294 -182 91
-182 91 -165 138 12 36 13 37 62 35 77 -3 295 -77 575 -194 66 -27 122 -48
124 -46 6 6 -204 107 -297 143 -86 33 -390 124 -416 124 -19 0 -17 16 26 167
21 76 47 183 56 238 23 132 24 344 1 443 -21 96 -20 148 5 317 18 118 20 168
15 318 l-5 178 32 19 c35 22 32 25 -7 10 -14 -5 -26 -6 -26 -2 0 21 33 102 46
113 9 8 11 16 5 23 -7 8 -1 39 18 94 16 45 26 82 23 82 -23 0 -153 -93 -230
-165 -99 -93 -127 -107 -65 -33 57 67 109 110 203 168 47 29 102 70 123 92 69
73 270 427 431 760 235 483 287 668 211 744 -39 39 -73 31 -279 -65 -512 -240
-820 -341 -1236 -407 -148 -23 -184 -25 -350 -21 -161 5 -221 12 -455 52 -232
40 -296 48 -453 52 -182 6 -183 6 -227 35 -71 47 -200 205 -345 423 -29 44
-92 132 -140 195 -48 63 -146 195 -219 293 -147 196 -278 335 -394 415 -125
86 -174 99 -252 63z m181 -180 c39 -18 174 -135 174 -151 0 -4 -17 -4 -37 1
-86 20 -93 5 -13 -24 25 -10 61 -31 80 -48 33 -28 33 -30 10 -25 -62 12 -151
18 -177 11 -25 -7 -19 -9 42 -22 73 -15 207 -72 220 -93 5 -8 2 -10 -11 -6
-48 14 -157 26 -239 25 l-90 -1 87 -18 c48 -10 104 -24 125 -31 57 -18 147
-59 142 -64 -3 -2 -49 1 -104 6 -109 11 -307 2 -284 -12 8 -5 32 -9 53 -9 64
0 205 -30 293 -62 94 -34 117 -52 51 -41 -61 11 -338 10 -433 -2 l-80 -9 125
-7 c144 -8 249 -28 365 -70 124 -45 137 -59 39 -43 -107 17 -336 17 -463 -1
-57 -8 -106 -17 -108 -18 -2 -2 59 -7 134 -10 157 -6 268 -26 398 -68 78 -26
172 -67 154 -69 -3 0 -50 7 -105 15 -166 25 -534 15 -584 -16 -10 -7 -2 -8 26
-4 59 9 306 -12 420 -35 137 -28 240 -63 373 -126 112 -53 138 -74 70 -54
-185 54 -499 61 -777 18 l-77 -13 150 -7 c252 -12 434 -51 603 -129 90 -41
236 -128 229 -135 -2 -3 -24 4 -49 15 -146 62 -355 88 -578 71 -217 -16 -250
-24 -135 -33 116 -10 306 -48 422 -86 157 -51 333 -147 423 -230 l45 -42 -70
34 c-148 72 -300 110 -500 127 -218 17 -243 11 -79 -21 578 -112 1122 -468
1422 -932 56 -87 114 -189 109 -193 -2 -2 -31 36 -64 84 -207 298 -463 556
-688 693 -140 85 -301 139 -460 155 -38 3 -68 4 -65 1 3 -2 42 -14 87 -25 82
-21 225 -84 273 -122 23 -18 19 -17 -50 4 -89 28 -185 42 -175 26 3 -5 17 -10
30 -10 39 0 156 -40 229 -78 64 -34 193 -139 182 -149 -2 -3 -31 13 -63 34
-76 52 -155 88 -221 102 -84 17 -83 14 10 -37 79 -42 215 -148 205 -158 -2 -2
-37 11 -78 30 -92 42 -191 76 -221 75 -15 0 -1 -10 42 -30 72 -34 220 -127
220 -139 0 -4 -17 -4 -37 1 -21 5 -101 13 -178 18 -90 6 -161 16 -198 29 -53
18 -56 18 -41 1 27 -29 98 -58 201 -80 141 -29 145 -31 103 -40 -19 -5 -75
-11 -123 -15 -63 -5 -85 -10 -77 -18 7 -7 82 -12 203 -13 281 -4 431 -35 596
-124 74 -40 206 -137 198 -146 -3 -2 -31 13 -63 33 -88 56 -249 130 -344 158
-128 36 -262 49 -430 42 -181 -9 -317 9 -416 54 -37 16 -69 28 -71 26 -10 -10
100 -85 171 -117 42 -19 76 -37 76 -41 0 -12 -72 -22 -147 -21 -80 1 -167 23
-230 58 -24 13 -43 20 -43 15 0 -14 80 -75 135 -103 l50 -26 -75 0 c-135 -1
-254 35 -337 100 -65 52 -133 164 -133 220 0 11 21 -4 63 -48 66 -69 117 -110
117 -95 0 11 -111 183 -147 227 -88 108 -268 255 -312 255 -12 0 -13 -18 -8
-112 7 -131 23 -196 71 -294 54 -109 144 -187 253 -220 50 -15 50 -14 -10 30
-37 27 -97 117 -97 146 0 8 14 0 38 -22 71 -68 157 -117 352 -203 l105 -46
-110 5 c-60 2 -157 14 -215 25 -329 65 -535 311 -601 716 -17 103 -17 373 0
495 39 292 127 581 252 835 133 269 322 496 414 495 11 0 38 -9 61 -19z m4088
-960 c10 -11 20 -37 23 -58 6 -46 -18 -82 -74 -109 -36 -17 -37 -18 -14 -24
22 -5 18 -9 -35 -32 -32 -15 -88 -34 -124 -43 -36 -9 -72 -21 -80 -25 -16 -10
-4 -9 129 10 40 6 75 9 78 7 13 -14 -184 -80 -357 -121 l-65 -15 85 5 c47 3
121 12 165 20 98 17 107 17 75 -1 -53 -31 -232 -96 -369 -135 -80 -22 -147
-42 -149 -45 -16 -16 300 45 388 75 47 15 94 31 105 35 34 11 -34 -43 -89 -72
-66 -33 -198 -82 -436 -159 -107 -35 -185 -63 -173 -64 12 0 83 11 158 25 145
27 318 78 424 126 169 76 9 -38 -194 -138 -88 -44 -225 -108 -305 -143 -80
-35 -149 -68 -155 -73 -27 -24 219 33 381 89 44 15 115 42 158 60 44 19 81 32
83 30 9 -9 -121 -98 -247 -170 -173 -100 -247 -153 -300 -216 -23 -27 -45 -50
-48 -50 -4 0 -23 24 -42 52 -44 66 -243 272 -315 328 -30 23 -55 50 -55 59 0
26 177 135 685 419 287 160 436 247 550 320 87 56 113 62 139 33z m-514 -1025
c0 -2 -55 -53 -122 -113 -68 -60 -139 -131 -158 -157 -75 -100 -61 -97 -109
-27 -27 41 -40 69 -36 81 10 30 151 110 315 176 116 48 110 46 110 40z m-1539
-227 c22 -66 32 -116 35 -183 l4 -91 -35 150 c-19 83 -46 182 -60 222 -14 39
-25 75 -25 80 2 19 53 -94 81 -178z m1514 59 c-8 -13 -53 -58 -100 -101 -47
-43 -99 -99 -117 -125 -17 -26 -33 -49 -35 -51 -5 -7 -43 32 -43 45 0 18 107
111 215 189 50 36 91 65 93 65 1 0 -4 -10 -13 -22z m-265 -318 c0 -4 -21 -25
-47 -45 -27 -21 -70 -59 -97 -84 l-48 -46 20 40 c11 22 46 74 78 114 l57 74
19 -23 c10 -12 18 -26 18 -30z m-3416 -65 c55 -8 102 -18 105 -21 3 -4 -37 -4
-89 0 -52 3 -162 9 -245 13 -91 4 -138 10 -120 14 55 12 249 9 349 -6z m-36
-75 c107 -10 260 -38 282 -52 10 -6 2 -8 -25 -4 -136 17 -360 27 -552 24 -122
-1 -216 0 -210 3 11 6 138 24 227 33 73 6 188 5 278 -4z m134 -134 c100 -16
191 -36 186 -42 -2 -2 -62 4 -133 13 -135 17 -715 25 -800 10 -25 -4 -32 -3
-20 2 11 4 70 13 130 20 61 6 124 13 140 15 65 9 405 -4 497 -18z m1493 -6 c4
-6 -14 -10 -47 -10 -72 0 -161 -31 -243 -86 -73 -47 -94 -50 -54 -8 31 33 100
74 164 96 55 19 170 24 180 8z m8 -71 c35 -18 57 -51 57 -87 0 -38 -31 -88
-59 -97 -25 -8 -70 11 -78 32 -3 10 -16 29 -28 43 -13 14 -25 34 -27 45 -3 19
-4 19 -25 -2 -13 -13 -28 -43 -34 -68 -13 -52 -35 -77 -45 -50 -18 45 49 154
111 181 37 16 99 18 128 3z m1802 -43 c-33 -13 -96 -40 -140 -60 -83 -37 -77
-23 10 21 53 28 150 62 175 62 8 0 -12 -10 -45 -23z m-3350 -35 c101 -19 232
-63 250 -83 7 -8 4 -9 -10 -4 -49 18 -210 46 -325 56 -117 11 -431 8 -630 -6
-176 -12 31 35 244 56 133 13 355 4 471 -19z m1258 -28 c-5 -16 -8 -64 -7
-108 2 -135 57 -242 152 -297 134 -78 312 20 366 202 20 66 20 113 2 173 -8
26 -10 47 -6 47 5 0 26 -23 49 -51 127 -160 76 -377 -111 -476 -48 -25 -63
-28 -153 -28 -94 0 -105 2 -170 34 -142 70 -234 203 -243 350 l-4 77 57 52
c64 59 79 64 68 25z m720 -210 c43 -137 58 -359 27 -378 -5 -3 -16 11 -25 31
-13 32 -18 36 -42 30 -16 -3 -59 -9 -98 -12 l-70 -6 30 20 c90 59 135 151 142
293 3 54 7 99 9 99 2 0 14 -35 27 -77z m1336 -265 c2 -107 -51 -252 -109 -301
-35 -30 -92 -44 -122 -30 -20 8 -18 11 24 36 109 64 166 169 176 327 6 94 6
95 18 55 7 -22 13 -61 13 -87z"/>
<path d="M2145 4779 c105 -107 212 -227 239 -266 27 -40 51 -71 53 -69 2 2 -6
25 -17 51 -52 122 -194 292 -319 383 -155 113 -147 97 44 -99z"/>
<path d="M2302 4819 c42 -41 89 -85 105 -99 l28 -25 -25 30 c-38 45 -142 144
-165 156 -11 6 14 -22 57 -62z"/>
<path d="M1940 4803 c29 -26 57 -49 61 -51 19 -8 227 -245 301 -345 45 -59 82
-106 84 -104 13 12 -57 172 -108 248 -92 138 -251 267 -362 293 -27 7 -25 3
24 -41z"/>
<path d="M5908 3803 c6 -2 18 -2 25 0 6 3 1 5 -13 5 -14 0 -19 -2 -12 -5z"/>
<path d="M4922 2619 c-57 -29 -66 -32 -94 -21 -36 13 -48 9 -48 -21 0 -35 48
-94 121 -148 85 -63 125 -108 138 -156 14 -49 14 -50 -4 -110 -44 -148 -309
-281 -540 -272 -47 2 -85 1 -85 -2 0 -12 36 -38 73 -54 74 -31 211 -9 371 60
45 19 89 35 98 35 9 0 40 -22 70 -48 66 -61 93 -75 124 -68 32 8 30 21 -7 63
-16 19 -44 64 -62 99 l-32 65 18 47 c10 26 24 69 32 97 16 59 88 135 129 135
31 0 118 102 143 169 28 74 -3 92 -97 56 -42 -16 -49 -16 -112 0 -65 17 -146
17 -197 0 -19 -7 -22 -5 -19 11 7 36 70 47 185 33 147 -17 250 -2 215 33 -8 8
-44 13 -95 13 -45 1 -122 5 -172 9 -89 8 -91 8 -153 -25z"/>
<path d="M3260 2424 c-987 -56 -1704 -332 -2215 -855 -108 -111 -108 -111 -26
-38 276 246 490 386 796 524 520 234 1134 342 1965 347 183 1 260 4 215 8 -83
9 -642 19 -735 14z"/>
<path d="M3628 2239 c-307 -25 -656 -87 -922 -163 -220 -64 -388 -129 -586
-227 -257 -128 -419 -238 -612 -413 -96 -87 -199 -192 -138 -140 289 245 499
384 783 519 421 199 912 326 1593 410 l189 23 -105 0 c-58 -1 -149 -4 -202 -9z"/>
<path d="M4075 2183 c-384 -45 -663 -113 -957 -234 -586 -240 -989 -605 -1199
-1088 -58 -133 -56 -148 4 -26 60 123 141 253 224 359 127 162 365 370 564
493 336 209 805 381 1276 468 75 14 139 28 142 30 4 5 0 5 -54 -2z"/>
<path d="M3910 2030 c-539 -166 -960 -481 -1218 -910 -48 -80 -126 -240 -118
-240 3 0 23 34 45 76 160 297 414 564 736 774 135 87 405 223 580 290 155 59
146 63 -25 10z"/>
<path d="M4025 1899 c-195 -108 -358 -236 -521 -409 -139 -149 -127 -150 21
-3 184 183 301 275 520 408 59 36 104 65 99 65 -5 0 -59 -27 -119 -61z"/>
<path d="M5375 1540 c9 -16 18 -30 21 -30 2 0 -2 14 -11 30 -9 17 -18 30 -21
30 -2 0 2 -13 11 -30z"/>
</g>
</svg>
