<svg xmlns="http://www.w3.org/2000/svg" width="981.333" height="981.333" viewBox="0 0 736 736"><path d="M220.5 66.9c-5.2 2.3-11.9 9.4-20.6 21.5-33.9 47.1-52.9 97-57.8 151.7-.9 10.1-1.2 11.2-6 20-11.2 20.9-14.1 33.7-15 66.4l-.6 23-3.3 6.9c-3.5 7.5-8.2 14.7-21.5 32.9-4.8 6.5-10.2 15-12.2 19-4.4 9-8.2 25.9-5.7 25.6.4 0 2.5-3.7 4.6-8.1 4.8-9.8 12.3-19.9 17.3-23.2 2-1.4 3.9-2.4 4.1-2.1.2.2-1.2 2.3-3.1 4.7-8.7 10.8-16.1 25.5-18.6 36.9-1.3 6.4-2.4 18.5-1.6 17.7.4-.4 2.4-4.5 4.4-9 4.8-10.8 11.2-20.7 16.1-25.2 6.3-5.7 6.4-4.2.3 4.1-3.1 4.3-7.3 11.4-9.4 15.8-3.7 7.7-8.4 23.5-7.6 25.8.2.6 2.2-2.4 4.5-6.7 2.3-4.2 5.4-9.3 6.9-11.3 2.7-3.5 10.2-9.7 11-9 .2.2-1.7 3.5-4.2 7.2-2.4 3.8-5.4 9.7-6.6 13.2-2 6-4.1 21.3-2.9 21.3.3 0 1.3-2 2.3-4.5 2.5-6 6.8-11.6 10.4-13.7l3.1-1.8-3.3 6.3c-4.2 7.9-5.7 15.2-5.3 25.2.3 7.5.4 7.8 1.6 5 2.7-6.6 10.8-18.3 11.8-17.2.2.2-.7 2.8-2 5.8-4 8.6-5.7 16.9-5.4 25.6l.3 7.8 1.8-5c2.4-7 9.2-17.1 13.5-20 2-1.3 3.7-2.3 3.9-2.1.2.1-1 2.7-2.7 5.7-5.2 9.7-8 26.3-6.5 39.1l.8 6.3 1.2-3.5c4.9-14 17.8-28.6 33.1-37.6 2.5-1.5 4.2-2.9 3.9-3.2-1-1-17.1 7.7-21.8 11.8-2.6 2.3-4.7 3.9-4.7 3.5s2.1-3.9 4.8-7.8c6.6-10.1 17.2-20.9 26.1-26.8 4.2-2.8 7.8-5.2 8-5.4.1-.2-2.3.2-5.6 1-6.9 1.6-14.4 4.7-18.5 7.6-4.7 3.4-4.3 1.5.9-3.6 5.6-5.5 11.4-9.7 19.8-14.2 4.8-2.6 5.5-3.3 3.5-3.3-4.1 0-14 2.8-20.9 6-7.7 3.7-8.1 3.7-5 .4 3.7-4 14.1-11.2 21.7-15 4.8-2.4 6-3.3 4.3-3.4-3.4 0-14.7 2.9-20.1 5.2l-4.4 1.9 1.9-2.1c3.3-3.7 10.9-8.8 19.1-13 9.2-4.6 7.9-5-6.6-2s-14.5 2.8-.4-3.5c5.5-2.5 9.1-4.5 8.1-4.5-3.6 0-16.9 3.1-21.4 5.1-2.5 1.1-4.8 1.8-5 1.5-1.7-1.6 24.5-16.6 29-16.6.9 0 1.9-.5 2.2-1 .4-.7-.7-.9-3.2-.5-2.1.3-7.3.9-11.6 1.5s-9.1 1.3-10.5 1.6c-2.3.4-2.1.1 1.3-2 4.1-2.6 18-8.3 27-11 5-1.6 5-1.6-6.5-1.1-6.3.3-12.8.8-14.5 1-6.9 1.1 9.6-5.5 20.2-8.2 6.2-1.5 11.3-3 11.3-3.3 0-1.4-33.7 1.7-40.5 3.6-1.3.4-1.7.3-1-.4 1.1-1 17.2-7.3 30.5-11.8l8.5-2.9-5-.3c-2.7-.2-11.9.2-20.3.8-8.4.7-15.5 1-15.8.7-.7-.6 12.5-5 24.8-8.1 19-4.9 27.3-6 46.8-6 15.8-.1 20 .2 28.9 2.2 23.4 5.3 37.8 12.5 61.5 31 6.1 4.8 17.5 13 25.3 18.2s14 9.7 13.8 9.9c-.6.5-18.2-10.4-37-22.9-34.6-23-49.9-30-71.9-33.1-7.9-1-25.6-.4-25.6 1 0 .3 3.3 1.2 7.3 1.8 8.7 1.4 17.6 4.3 27.7 8.9 7.4 3.5 17.4 9.4 16.7 10-.1.2-4.3-1-9.2-2.7-12.3-4.1-22.3-5.5-30.5-4.2l-6.5 1 5 .2c7.6.2 21.2 2.6 28.5 5.1 10.3 3.5 23 10 44.6 22.8 23.7 14.1 28.1 16.5 39.4 20.8 9.9 3.8 9.5 4.3-1 1.3-9.8-2.7-20.2-7.6-42-19.9-9.8-5.6-21.7-11.7-26.4-13.6-13.7-5.6-28.2-7.6-39.1-5.5l-4 .8 4 .7c16.3 2.8 31.1 8.8 46.6 18.8 7.4 4.8 11.1 7.8 9.6 7.8-.2 0-3.9-1.7-8.3-3.8-8.2-4-19.1-8.5-23.4-9.6-1.4-.4 1.6 1.3 6.5 3.7 9 4.4 42 25.7 39.8 25.7-1.6 0-15.2-5.9-26.8-11.7-16-8-16.2-7.2-.5 1.7 23.2 13.2 26.8 14.7 42.5 18.2 10.1 2.2 40.5 1.6 55-1 13-2.4 37.7-8.5 54.5-13.3 17.4-5.1 23.4-4.9 32.2.9 3.3 2.2 4.1 2.3 6.7 1.2 1.6-.6 3.5-2.5 4.2-4.1 1-2.6.9-3.6-1.5-8.6-3.4-6.9-4.2-13.5-2.7-24.4 3.9-29.5 3.4-40.4-2.9-71.8-2.2-10.8-4.5-23.4-5-28.1-1.1-8.4-4.5-23.9-7.4-33.3-.8-2.6-1.3-4.7-1-4.7 1.4 0 8.7 18.1 11.4 28.1l3 11.4-.4-8.5c-1.5-29.6-17.6-57.2-43.3-74.4-7.6-5.2-7.7-5.5-.7-2.5 13.8 6.1 30.1 20.2 38.8 33.6 7.6 11.8 13.5 28.5 13.6 38.7 0 3.2.3 3.8 1.3 2.8 1.7-1.8 1.6-25-.2-32.2-3.5-14-12.8-28.6-23.4-36.6-6.9-5.2-5.1-5.1 5.8.4 26.7 13.3 45 34.8 49.9 58.7l1.3 6 .6-4c.8-4.8-.7-16-3-21.7-2.6-6.7-9.9-17.6-16.7-24.7-6.6-7-6.1-7.1 2.4-.6 13 9.9 24.2 24.7 29.6 39.3 3 7.9 6.3 22 6.5 27.7l.1 4 .9-3c1.7-5.2-.7-22.8-4.6-35-1.3-4.2 2.5 3.4 5.3 10.6 3.9 9.9 7.1 22.7 8.6 35.2l1.2 10.2 1.4-6c1.5-6.9 1.9-21.3.7-30-.9-7.4.5-5.6 3 3.7 2 8 2 22.7-.1 32.9-.9 4.1-4.1 16.1-7 26.6-7.1 24.9-8 29.4-8 44.3 0 13.1 1.6 24.2 4.2 29.9 1.4 3.1 1.8 3.3 5.5 2.8 8.6-1.2 15.2-9.9 16.3-21.4l.7-7-3.8-3.7c-3-3.1-3.6-4.2-3-6.4 1.1-4.7 5.3-6.5 9.6-4.2 1 .6 2.9 3 4.1 5.3 2 3.6 2.3 5.7 2.3 14.7 0 9.5-.3 11.1-2.8 16.2-3.6 7.3-10.2 13.2-16.8 14.9-4.3 1.1-4.8 1.5-4.3 3.3 1.3 4.1 5.8 10.2 12.9 17.6 12.1 12.5 15.5 20.1 15.5 34.3 0 17.5-8 34.7-23.1 49.6-5.1 5.1-29.9 22.2-41.9 28.9-12.4 6.9-30.4 11.3-53.9 13.1-11.3.8-13 1.2-19.5 4.5-9 4.6-15.6 10.2-20.6 17.6-6.6 9.7-9.2 20.5-7.4 29.9.6 3 .8 2.9 3.8-4.2 1.8-4 3.9-8.3 4.7-9.4 5.9-8.4 16-16.7 26.6-22 7.4-3.7 8.6-4 19.5-4.6 12.5-.8 21.4-2.3 31.8-5.7 13.3-4.4 31.9-14.5 46.3-25.4 4.6-3.4 8.3-5.6 9.2-5.2 1 .3 1.5-.1 1.5-1.4 0-1.9 7.5-9 9.6-9 3.2 0 22.3 24.1 31.7 40 7.7 12.9 8 13.3 5.4 7-4.8-11.2-15-26.4-27.1-40.2-7.3-8.3-9.1-11.8-6.3-11.8 1.5 0 8.4 7 18.7 19 9.6 11.2 10.1 11.6 5.1 4.3-2.4-3.4-8.1-10.3-12.7-15.4s-8.4-9.7-8.4-10.3c0-1.8 3.9-7.6 5.5-8.2 5-2 28.2 13.5 54.5 36.4 11.9 10.4 12.7 11 8 5.7-11.3-12.7-29.3-27-48.8-38.9-9.8-6-11.2-7.2-10.6-9 1.3-4.4 2.3-4.2 15.7 2.8 15.8 8.2 38 20.9 49.7 28.3 7.6 4.8 8.1 5 4.5 1.7-8.5-7.7-24.6-17.5-48.5-29.4-18.2-9.1-18.2-9.1-16.5-13.8 1.2-3.6 1.3-3.7 6.2-3.5 7.7.3 29.5 7.7 57.5 19.4 6.6 2.7 12.2 4.8 12.4 4.6.6-.6-20.4-10.7-29.7-14.3-8.6-3.3-39-12.4-41.6-12.4-1.9 0-1.7-1.6 2.6-16.7 2.1-7.6 4.7-18.3 5.6-23.8 2.3-13.2 2.4-34.4.1-44.3-2.1-9.6-2-14.8.5-31.7 1.8-11.8 2-16.8 1.5-31.8l-.5-17.8 3.2-1.9c3.5-2.2 3.2-2.5-.7-1-1.4.5-2.6.6-2.6.2 0-2.1 3.3-10.2 4.6-11.3.9-.8 1.1-1.6.5-2.3-.7-.8-.1-3.9 1.8-9.4 1.6-4.5 2.6-8.2 2.3-8.2-2.3 0-15.3 9.3-23 16.5-9.9 9.3-12.7 10.7-6.5 3.3 5.7-6.7 10.9-11 20.3-16.8 4.7-2.9 10.2-7 12.3-9.2 6.9-7.3 27-42.7 43.1-76 23.5-48.3 28.7-66.8 21.1-74.4-3.9-3.9-7.3-3.1-27.9 6.5-51.2 24-82 34.1-123.6 40.7-14.8 2.3-18.4 2.5-35 2.1-16.1-.5-22.1-1.2-45.5-5.2-23.2-4-29.6-4.8-45.3-5.2-18.2-.6-18.3-.6-22.7-3.5-7.1-4.7-20-20.5-34.5-42.3-2.9-4.4-9.2-13.2-14-19.5s-14.6-19.5-21.9-29.3c-14.7-19.6-27.8-33.5-39.4-41.5-12.5-8.6-17.4-9.9-25.2-6.3m18.1 18c3.9 1.8 17.4 13.5 17.4 15.1 0 .4-1.7.4-3.7-.1-8.6-2-9.3-.5-1.3 2.4 2.5 1 6.1 3.1 8 4.8 3.3 2.8 3.3 3 1 2.5-6.2-1.2-15.1-1.8-17.7-1.1-2.5.7-1.9.9 4.2 2.2 7.3 1.5 20.7 7.2 22 9.3.5.8.2 1-1.1.6-4.8-1.4-15.7-2.6-23.9-2.5l-9 .1 8.7 1.8c4.8 1 10.4 2.4 12.5 3.1 5.7 1.8 14.7 5.9 14.2 6.4-.3.2-4.9-.1-10.4-.6-10.9-1.1-30.7-.2-28.4 1.2.8.5 3.2.9 5.3.9 6.4 0 20.5 3 29.3 6.2 9.4 3.4 11.7 5.2 5.1 4.1-6.1-1.1-33.8-1-43.3.2l-8 .9 12.5.7c14.4.8 24.9 2.8 36.5 7 12.4 4.5 13.7 5.9 3.9 4.3-10.7-1.7-33.6-1.7-46.3.1-5.7.8-10.6 1.7-10.8 1.8-.2.2 5.9.7 13.4 1 15.7.6 26.8 2.6 39.8 6.8 7.8 2.6 17.2 6.7 15.4 6.9-.3 0-5-.7-10.5-1.5-16.6-2.5-53.4-1.5-58.4 1.6-1 .7-.2.8 2.6.4 5.9-.9 30.6 1.2 42 3.5 13.7 2.8 24 6.3 37.3 12.6 11.2 5.3 13.8 7.4 7 5.4-18.5-5.4-49.9-6.1-77.7-1.8l-7.7 1.3 15 .7c25.2 1.2 43.4 5.1 60.3 12.9 9 4.1 23.6 12.8 22.9 13.5-.2.3-2.4-.4-4.9-1.5-14.6-6.2-35.5-8.8-57.8-7.1-21.7 1.6-25 2.4-13.5 3.3 11.6 1 30.6 4.8 42.2 8.6 15.7 5.1 33.3 14.7 42.3 23l4.5 4.2-7-3.4c-14.8-7.2-30-11-50-12.7-21.8-1.7-24.3-1.1-7.9 2.1 57.8 11.2 112.2 46.8 142.2 93.2 5.6 8.7 11.4 18.9 10.9 19.3-.2.2-3.1-3.6-6.4-8.4-20.7-29.8-46.3-55.6-68.8-69.3-14-8.5-30.1-13.9-46-15.5-3.8-.3-6.8-.4-6.5-.1.3.2 4.2 1.4 8.7 2.5 8.2 2.1 22.5 8.4 27.3 12.2 2.3 1.8 1.9 1.7-5-.4-8.9-2.8-18.5-4.2-17.5-2.6.3.5 1.7 1 3 1 3.9 0 15.6 4 22.9 7.8 6.4 3.4 19.3 13.9 18.2 14.9-.2.3-3.1-1.3-6.3-3.4-7.6-5.2-15.5-8.8-22.1-10.2-8.4-1.7-8.3-1.4 1 3.7 7.9 4.2 21.5 14.8 20.5 15.8-.2.2-3.7-1.1-7.8-3-9.2-4.2-19.1-7.6-22.1-7.5q-2.25 0 4.2 3c7.2 3.4 22 12.7 22 13.9 0 .4-1.7.4-3.7-.1-2.1-.5-10.1-1.3-17.8-1.8-9-.6-16.1-1.6-19.8-2.9-5.3-1.8-5.6-1.8-4.1-.1 2.7 2.9 9.8 5.8 20.1 8 14.1 2.9 14.5 3.1 10.3 4-1.9.5-7.5 1.1-12.3 1.5-6.3.5-8.5 1-7.7 1.8.7.7 8.2 1.2 20.3 1.3 28.1.4 43.1 3.5 59.6 12.4 7.4 4 20.6 13.7 19.8 14.6-.3.2-3.1-1.3-6.3-3.3-8.8-5.6-24.9-13-34.4-15.8-12.8-3.6-26.2-4.9-43-4.2-18.1.9-31.7-.9-41.6-5.4-3.7-1.6-6.9-2.8-7.1-2.6-1 1 10 8.5 17.1 11.7 4.2 1.9 7.6 3.7 7.6 4.1 0 1.2-7.2 2.2-14.7 2.1-8-.1-16.7-2.3-23-5.8-2.4-1.3-4.3-2-4.3-1.5 0 1.4 8 7.5 13.5 10.3l5 2.6H263c-13.5.1-25.4-3.5-33.7-10-6.5-5.2-13.3-16.4-13.3-22 0-1.1 2.1.4 6.3 4.8 6.6 6.9 11.7 11 11.7 9.5 0-1.1-11.1-18.3-14.7-22.7-8.8-10.8-26.8-25.5-31.2-25.5-1.2 0-1.3 1.8-.8 11.2.7 13.1 2.3 19.6 7.1 29.4 5.4 10.9 14.4 18.7 25.3 22 5 1.5 5 1.4-1-3-3.7-2.7-9.7-11.7-9.7-14.6 0-.8 1.4 0 3.8 2.2 7.1 6.8 15.7 11.7 35.2 20.3l10.5 4.6-11-.5c-6-.2-15.7-1.4-21.5-2.5-32.9-6.5-53.5-31.1-60.1-71.6-1.7-10.3-1.7-37.3 0-49.5 3.9-29.2 12.7-58.1 25.2-83.5 13.3-26.9 32.2-49.6 41.4-49.5 1.1 0 3.8.9 6.1 1.9m408.8 96c1 1.1 2 3.7 2.3 5.8.6 4.6-1.8 8.2-7.4 10.9-3.6 1.7-3.7 1.8-1.4 2.4 2.2.5 1.8.9-3.5 3.2-3.2 1.5-8.8 3.4-12.4 4.3s-7.2 2.1-8 2.5c-1.6 1-.4.9 12.9-1 4-.6 7.5-.9 7.8-.7 1.3 1.4-18.4 8-35.7 12.1l-6.5 1.5 8.5-.5c4.7-.3 12.1-1.2 16.5-2 9.8-1.7 10.7-1.7 7.5.1-5.3 3.1-23.2 9.6-36.9 13.5-8 2.2-14.7 4.2-14.9 4.5-1.6 1.6 30-4.5 38.8-7.5 4.7-1.5 9.4-3.1 10.5-3.5 3.4-1.1-3.4 4.3-8.9 7.2-6.6 3.3-19.8 8.2-43.6 15.9-10.7 3.5-18.5 6.3-17.3 6.4 1.2 0 8.3-1.1 15.8-2.5 14.5-2.7 31.8-7.8 42.4-12.6 16.9-7.6.9 3.8-19.4 13.8-8.8 4.4-22.5 10.8-30.5 14.3s-14.9 6.8-15.5 7.3c-2.7 2.4 21.9-3.3 38.1-8.9 4.4-1.5 11.5-4.2 15.8-6 4.4-1.9 8.1-3.2 8.3-3 .9.9-12.1 9.8-24.7 17-17.3 10-24.7 15.3-30 21.6-2.3 2.7-4.5 5-4.8 5-.4 0-2.3-2.4-4.2-5.2-4.4-6.6-24.3-27.2-31.5-32.8-3-2.3-5.5-5-5.5-5.9 0-2.6 17.7-13.5 68.5-41.9 28.7-16 43.6-24.7 55-32 8.7-5.6 11.3-6.2 13.9-3.3M596 283.4c0 .2-5.5 5.3-12.2 11.3-6.8 6-13.9 13.1-15.8 15.7-7.5 10-6.1 9.7-10.9 2.7-2.7-4.1-4-6.9-3.6-8.1 1-3 15.1-11 31.5-17.6 11.6-4.8 11-4.6 11-4m-153.9 22.7c2.2 6.6 3.2 11.6 3.5 18.3l.4 9.1-3.5-15c-1.9-8.3-4.6-18.2-6-22.2-1.4-3.9-2.5-7.5-2.5-8 .2-1.9 5.3 9.4 8.1 17.8m151.4-5.9c-.8 1.3-5.3 5.8-10 10.1s-9.9 9.9-11.7 12.5c-1.7 2.6-3.3 4.9-3.5 5.1-.5.7-4.3-3.2-4.3-4.5 0-1.8 10.7-11.1 21.5-18.9 5-3.6 9.1-6.5 9.3-6.5.1 0-.4 1-1.3 2.2M567 332c0 .4-2.1 2.5-4.7 4.5-2.7 2.1-7 5.9-9.7 8.4l-4.8 4.6 2-4c1.1-2.2 4.6-7.4 7.8-11.4l5.7-7.4 1.9 2.3c1 1.2 1.8 2.6 1.8 3m-341.6 6.5c5.5.8 10.2 1.8 10.5 2.1.3.4-3.7.4-8.9 0-5.2-.3-16.2-.9-24.5-1.3-9.1-.4-13.8-1-12-1.4 5.5-1.2 24.9-.9 34.9.6m-3.6 7.5c10.7 1 26 3.8 28.2 5.2 1 .6.2.8-2.5.4-13.6-1.7-36-2.7-55.2-2.4-12.2.1-21.6 0-21-.3 1.1-.6 13.8-2.4 22.7-3.3 7.3-.6 18.8-.5 27.8.4m13.4 13.4c10 1.6 19.1 3.6 18.6 4.2-.2.2-6.2-.4-13.3-1.3-13.5-1.7-71.5-2.5-80-1-2.5.4-3.2.3-2-.2 1.1-.4 7-1.3 13-2 6.1-.6 12.4-1.3 14-1.5 6.5-.9 40.5.4 49.7 1.8m149.3.6c.4.6-1.4 1-4.7 1-7.2 0-16.1 3.1-24.3 8.6-7.3 4.7-9.4 5-5.4.8 3.1-3.3 10-7.4 16.4-9.6 5.5-1.9 17-2.4 18-.8m.8 7.1c3.5 1.8 5.7 5.1 5.7 8.7 0 3.8-3.1 8.8-5.9 9.7-2.5.8-7-1.1-7.8-3.2-.3-1-1.6-2.9-2.8-4.3-1.3-1.4-2.5-3.4-2.7-4.5-.3-1.9-.4-1.9-2.5.2-1.3 1.3-2.8 4.3-3.4 6.8-1.3 5.2-3.5 7.7-4.5 5-1.8-4.5 4.9-15.4 11.1-18.1 3.7-1.6 9.9-1.8 12.8-.3m180.2 4.3c-3.3 1.3-9.6 4-14 6-8.3 3.7-7.7 2.3 1-2.1 5.3-2.8 15-6.2 17.5-6.2.8 0-1.2 1-4.5 2.3m-335 3.5c10.1 1.9 23.2 6.3 25 8.3.7.8.4.9-1 .4-4.9-1.8-21-4.6-32.5-5.6-11.7-1.1-43.1-.8-63 .6-17.6 1.2 3.1-3.5 24.4-5.6 13.3-1.3 35.5-.4 47.1 1.9m125.8 2.8c-.5 1.6-.8 6.4-.7 10.8.2 13.5 5.7 24.2 15.2 29.7 13.4 7.8 31.2-2 36.6-20.2 2-6.6 2-11.3.2-17.3-.8-2.6-1-4.7-.6-4.7.5 0 2.6 2.3 4.9 5.1 12.7 16 7.6 37.7-11.1 47.6-4.8 2.5-6.3 2.8-15.3 2.8-9.4 0-10.5-.2-17-3.4-14.2-7-23.4-20.3-24.3-35l-.4-7.7 5.7-5.2c6.4-5.9 7.9-6.4 6.8-2.5m72 21c4.3 13.7 5.8 35.9 2.7 37.8-.5.3-1.6-1.1-2.5-3.1-1.3-3.2-1.8-3.6-4.2-3-1.6.3-5.9.9-9.8 1.2l-7 .6 3-2c9-5.9 13.5-15.1 14.2-29.3.3-5.4.7-9.9.9-9.9s1.4 3.5 2.7 7.7m133.6 26.5c.2 10.7-5.1 25.2-10.9 30.1-3.5 3-9.2 4.4-12.2 3-2-.8-1.8-1.1 2.4-3.6 10.9-6.4 16.6-16.9 17.6-32.7.6-9.4.6-9.5 1.8-5.5.7 2.2 1.3 6.1 1.3 8.7"/><path d="M214.5 258.1c10.5 10.7 21.2 22.7 23.9 26.6 2.7 4 5.1 7.1 5.3 6.9s-.6-2.5-1.7-5.1c-5.2-12.2-19.4-29.2-31.9-38.3-15.5-11.3-14.7-9.7 4.4 9.9m15.7-4c4.2 4.1 8.9 8.5 10.5 9.9l2.8 2.5-2.5-3c-3.8-4.5-14.2-14.4-16.5-15.6-1.1-.6 1.4 2.2 5.7 6.2m-36.2 1.6c2.9 2.6 5.7 4.9 6.1 5.1 1.9.8 22.7 24.5 30.1 34.5 4.5 5.9 8.2 10.6 8.4 10.4 1.3-1.2-5.7-17.2-10.8-24.8-9.2-13.8-25.1-26.7-36.2-29.3-2.7-.7-2.5-.3 2.4 4.1m396.8 100c.6.2 1.8.2 2.5 0 .6-.3.1-.5-1.3-.5s-1.9.2-1.2.5m-98.6 118.4c-5.7 2.9-6.6 3.2-9.4 2.1-3.6-1.3-4.8-.9-4.8 2.1 0 3.5 4.8 9.4 12.1 14.8 8.5 6.3 12.5 10.8 13.8 15.6 1.4 4.9 1.4 5-.4 11-4.4 14.8-30.9 28.1-54 27.2-4.7-.2-8.5-.1-8.5.2 0 1.2 3.6 3.8 7.3 5.4 7.4 3.1 21.1.9 37.1-6 4.5-1.9 8.9-3.5 9.8-3.5s4 2.2 7 4.8c6.6 6.1 9.3 7.5 12.4 6.8 3.2-.8 3-2.1-.7-6.3-1.6-1.9-4.4-6.4-6.2-9.9l-3.2-6.5 1.8-4.7c1-2.6 2.4-6.9 3.2-9.7 1.6-5.9 8.8-13.5 12.9-13.5 3.1 0 11.8-10.2 14.3-16.9 2.8-7.4-.3-9.2-9.7-5.6-4.2 1.6-4.9 1.6-11.2 0-6.5-1.7-14.6-1.7-19.7 0-1.9.7-2.2.5-1.9-1.1.7-3.6 7-4.7 18.5-3.3 14.7 1.7 25 .2 21.5-3.3-.8-.8-4.4-1.3-9.5-1.3-4.5-.1-12.2-.5-17.2-.9-8.9-.8-9.1-.8-15.3 2.5M326 493.6c-98.7 5.6-170.4 33.2-221.5 85.5-10.8 11.1-10.8 11.1-2.6 3.8 27.6-24.6 49-38.6 79.6-52.4 52-23.4 113.4-34.2 196.5-34.7 18.3-.1 26-.4 21.5-.8-8.3-.9-64.2-1.9-73.5-1.4"/><path d="M362.8 512.1c-30.7 2.5-65.6 8.7-92.2 16.3-22 6.4-38.8 12.9-58.6 22.7-25.7 12.8-41.9 23.8-61.2 41.3-9.6 8.7-19.9 19.2-13.8 14 28.9-24.5 49.9-38.4 78.3-51.9 42.1-19.9 91.2-32.6 159.3-41l18.9-2.3H383c-5.8.1-14.9.4-20.2.9"/><path d="M407.5 517.7c-38.4 4.5-66.3 11.3-95.7 23.4-58.6 24-98.9 60.5-119.9 108.8-5.8 13.3-5.6 14.8.4 2.6 6-12.3 14.1-25.3 22.4-35.9 12.7-16.2 36.5-37 56.4-49.3 33.6-20.9 80.5-38.1 127.6-46.8 7.5-1.4 13.9-2.8 14.2-3 .4-.5 0-.5-5.4.2"/><path d="M391 533c-53.9 16.6-96 48.1-121.8 91-4.8 8-12.6 24-11.8 24 .3 0 2.3-3.4 4.5-7.6 16-29.7 41.4-56.4 73.6-77.4 13.5-8.7 40.5-22.3 58-29 15.5-5.9 14.6-6.3-2.5-1m11.5 13.1c-19.5 10.8-35.8 23.6-52.1 40.9-13.9 14.9-12.7 15 2.1.3 18.4-18.3 30.1-27.5 52-40.8 5.9-3.6 10.4-6.5 9.9-6.5s-5.9 2.7-11.9 6.1m135 35.9c.9 1.6 1.8 3 2.1 3 .2 0-.2-1.4-1.1-3-.9-1.7-1.8-3-2.1-3-.2 0 .2 1.3 1.1 3"/></svg>